<svg width="25" height="25" viewBox="0 0 25 25" fill="none" xmlns="http://www.w3.org/2000/svg">
<g clip-path="url(#clip0_59_51)">
<path d="M21.5576 3.65723C21.0791 3.7793 21.0107 3.8086 17.334 5.53224L14.0381 7.0752L10.3613 5.63966C8.33984 4.84864 6.55761 4.16505 6.39648 4.12598C5.99609 4.02345 5.38573 4.02345 5.06835 4.13087C4.5996 4.28712 4.19921 4.81446 4.09667 5.40528C4.03808 5.76173 4.07226 5.90821 4.23827 6.06934C4.31151 6.1377 5.40526 6.90431 6.66991 7.77345C7.93456 8.6377 8.9746 9.36524 8.98925 9.38966C8.99901 9.40919 8.40819 9.71192 7.67089 10.0586L6.33788 10.6934L4.02831 10.1074C2.76366 9.78516 1.6455 9.52149 1.55273 9.52149C1.44042 9.52149 1.35253 9.55567 1.28417 9.62891C1.22558 9.69239 0.917961 10.2197 0.590812 10.8057C-0.0586018 11.9678 -0.112313 12.1387 0.112297 12.3535C0.17089 12.4121 0.937492 12.7539 1.80663 13.1152C2.68066 13.4717 3.44726 13.794 3.51562 13.8233C3.6328 13.877 3.61816 13.8867 3.23241 14.0674C2.8955 14.2236 2.81737 14.2774 2.75878 14.419C2.70995 14.5313 2.70019 14.6338 2.72948 14.7266C2.81737 15.0244 3.72558 16.9238 3.83788 17.041C3.92577 17.1289 4.0039 17.1582 4.14062 17.1533C4.26757 17.1533 5.38573 16.6504 7.99804 15.4297C10.0195 14.4824 11.6846 13.7207 11.6992 13.7305C11.709 13.7451 11.5771 15.2442 11.4014 17.0703C11.2256 18.8916 11.0791 20.5029 11.0791 20.6445C11.0742 20.9717 11.1963 21.1182 11.6357 21.3184C12.0801 21.5186 12.5879 21.5381 12.9639 21.3672C13.3105 21.2109 13.6523 20.8545 13.8769 20.4297C13.9795 20.2344 14.6924 18.2031 15.5566 15.6445L17.0557 11.1914L20.0146 9.81446C21.6406 9.05763 23.1348 8.33497 23.3349 8.2129C24.082 7.75391 24.6777 7.04591 24.9023 6.35743C24.9951 6.06446 25.0098 5.93263 24.9902 5.53224C24.9707 5.12696 24.9463 5.00977 24.834 4.79005C24.5361 4.20899 23.9307 3.75001 23.3008 3.61817C22.9053 3.53516 21.958 3.5547 21.5576 3.65723ZM23.3984 4.65333C23.5742 4.74122 23.75 4.87794 23.8623 5.01466C24.043 5.23438 24.0478 5.24903 24.0478 5.63477C24.0478 5.95216 24.0234 6.07423 23.9307 6.25001C23.6621 6.76759 23.2471 7.18751 22.6807 7.51466C22.4121 7.67091 17.5146 9.96583 17.4951 9.9463C17.4902 9.93653 17.5488 9.73634 17.6269 9.49708C17.8076 8.95997 17.8076 8.8672 17.6318 8.68653C17.4414 8.50099 17.1533 8.48634 16.9873 8.66212C16.9092 8.74513 16.3525 10.332 15.0439 14.2383C14.0332 17.2461 13.1543 19.7998 13.0908 19.9219C12.8076 20.4688 12.5537 20.6494 12.207 20.5567C12.0752 20.5225 12.0117 20.4785 12.0117 20.4199C12.0117 20.376 12.207 18.291 12.4463 15.7959C12.8271 11.8164 12.876 11.2354 12.8174 11.0986C12.7441 10.9229 12.6172 10.8399 12.4072 10.8399C12.0459 10.8399 11.9824 10.9766 11.8896 11.9043C11.8457 12.2998 11.7969 12.627 11.7773 12.6367C11.7578 12.6465 10.083 13.4277 8.05663 14.375L4.37011 16.0986L4.07226 15.4834C3.90624 15.1465 3.77929 14.8584 3.78417 14.8438C3.79394 14.8291 4.06737 14.6973 4.39452 14.5508C4.72167 14.4043 5.04394 14.2334 5.10741 14.1748C5.2539 14.0381 5.26855 13.7402 5.13183 13.5693C5.06835 13.4863 4.46288 13.2129 3.08105 12.6465C2.00683 12.2022 1.12304 11.8213 1.12304 11.8018C1.12304 11.7774 1.27929 11.4795 1.4746 11.1377L1.82128 10.5176L4.04784 11.0693C5.5371 11.4404 6.333 11.6162 6.4453 11.6016C6.53808 11.5918 9.86816 10.0586 13.8428 8.20313C17.8174 6.34278 21.1816 4.78028 21.3135 4.72657C21.7627 4.54591 22.0312 4.49708 22.583 4.50684C23.0615 4.51661 23.1494 4.53126 23.3984 4.65333ZM6.17675 5.03419C6.40624 5.09766 12.7539 7.56349 12.8027 7.61231C12.832 7.63673 11.8603 8.10059 10.1758 8.87696L10.0293 8.94532L7.58788 7.2754C6.24999 6.35743 5.12206 5.57618 5.083 5.542C4.98534 5.44434 5.09765 5.19044 5.29296 5.07325C5.46386 4.96583 5.86913 4.95118 6.17675 5.03419Z" fill="#EBEEF0"/>
</g>
<defs>
<clipPath id="clip0_59_51">
<rect width="25" height="25" fill="white"/>
</clipPath>
</defs>
</svg>
