<svg width="20" height="20" viewBox="0 0 20 20" fill="none" xmlns="http://www.w3.org/2000/svg">
<g clip-path="url(#clip0_59_56)">
<path d="M9.06641 0.0624962C6.92578 0.421871 5.13672 2.22656 4.78516 4.375C4.71094 4.85156 4.71094 5.69531 4.78516 6.17187C5.13672 8.33984 6.9336 10.1367 9.10157 10.4883C9.57813 10.5625 10.4219 10.5625 10.8984 10.4883C13.0664 10.1367 14.8633 8.33984 15.2149 6.17187C15.2891 5.69531 15.2891 4.85156 15.2149 4.375C14.8633 2.20703 13.0664 0.410152 10.8984 0.0585899C10.4414 -0.0156288 9.51563 -0.0117226 9.06641 0.0624962ZM10.4492 1.22656C11.2305 1.28906 12.1094 1.6875 12.7617 2.28125C13.2852 2.75781 13.7578 3.54687 13.9531 4.25781C14.0313 4.54297 14.043 4.68359 14.043 5.27344C14.043 6.07031 13.9805 6.37109 13.6875 6.98828C13.2734 7.86328 12.6094 8.53125 11.7383 8.94922C9.94532 9.80469 7.83204 9.24219 6.66016 7.59766C6.42578 7.27344 6.16016 6.69922 6.04688 6.28906C5.96875 6 5.95703 5.86719 5.95703 5.27344C5.95703 4.48047 6.01953 4.17969 6.30469 3.57031C6.53516 3.08593 6.75391 2.77343 7.125 2.39843C7.81641 1.71093 8.70313 1.29297 9.64063 1.21484C9.82813 1.19921 10.0234 1.1914 10.0781 1.19531C10.1328 1.20312 10.3008 1.21484 10.4492 1.22656Z" fill="#EBEEF0"/>
<path d="M7.71484 11.7812C5.46875 12.1367 3.54297 13.418 2.33594 15.3633C1.63281 16.4883 1.21094 17.9336 1.21094 19.1914C1.21094 19.6719 1.25 19.7812 1.46875 19.9258C1.57812 19.9961 1.82031 20 10 20C18.1797 20 18.4219 19.9961 18.5312 19.9258C18.75 19.7812 18.7891 19.6719 18.7891 19.1836C18.7891 17.2656 17.8945 15.2422 16.418 13.8281C15.3359 12.7891 14.1328 12.1602 12.5938 11.8281C12.2305 11.75 12.082 11.7461 10.1367 11.7344C8.49219 11.7266 7.99219 11.7344 7.71484 11.7812ZM11.543 12.9297C13.5742 13.0703 15.3594 14.1016 16.5039 15.8008C16.7461 16.1641 17.1562 17.0117 17.2812 17.4102C17.375 17.7148 17.5 18.293 17.5547 18.6641L17.5781 18.8281H10H2.42188L2.44531 18.6641C2.5 18.293 2.625 17.7148 2.71875 17.4102C2.84375 17.0117 3.25391 16.1641 3.49609 15.8008C4.62109 14.1328 6.43359 13.0664 8.37891 12.9336C8.99219 12.8906 10.9453 12.8867 11.543 12.9297Z" fill="#EBEEF0"/>
</g>
<defs>
<clipPath id="clip0_59_56">
<rect width="20" height="20" fill="white"/>
</clipPath>
</defs>
</svg>
