<svg width="28" height="28" viewBox="0 0 28 28" fill="none" xmlns="http://www.w3.org/2000/svg">
<path d="M13.7959 11.2876V16.6304H21.2205C20.8945 18.3486 19.9161 19.8035 18.4488 20.7818L22.9261 24.2559C25.5348 21.8479 27.0398 18.3111 27.0398 14.1096C27.0398 13.1314 26.952 12.1907 26.7889 11.2877L13.7959 11.2876Z" fill="#4285F4"/>
<path d="M6.0647 16.4218L5.05489 17.1948L1.48047 19.979C3.7505 24.4815 8.4031 27.5919 13.796 27.5919C17.5207 27.5919 20.6436 26.3628 22.9262 24.2558L18.4488 20.7817C17.2198 21.6095 15.652 22.1112 13.796 22.1112C10.2091 22.1112 7.16154 19.6907 6.07034 16.4298L6.0647 16.4218Z" fill="#34A853"/>
<path d="M1.47981 7.61285C0.539234 9.46896 0 11.5635 0 13.7959C0 16.0283 0.539234 18.1228 1.47981 19.9789C1.47981 19.9913 6.07012 16.417 6.07012 16.417C5.79421 15.5893 5.63112 14.7114 5.63112 13.7957C5.63112 12.8801 5.79421 12.0022 6.07012 11.1744L1.47981 7.61285Z" fill="#FBBC05"/>
<path d="M13.7962 5.49329C15.828 5.49329 17.634 6.19561 19.0763 7.55014L23.0268 3.59954C20.6314 1.36714 17.5212 0 13.7962 0C8.40338 0 3.7505 3.09781 1.48047 7.61286L6.07064 11.1747C7.1617 7.91384 10.2094 5.49329 13.7962 5.49329Z" fill="#EA4335"/>
</svg>
