<svg width="25" height="25" viewBox="0 0 25 25" fill="none" xmlns="http://www.w3.org/2000/svg">
<g clip-path="url(#clip0_59_45)">
<path d="M18.7255 0.668957C16.914 1.04982 15.4247 2.28517 14.79 3.93068C14.3261 5.12208 14.3261 6.59669 14.79 7.79298C15.1366 8.68653 15.8202 9.57521 16.6161 10.1611C16.8407 10.3223 17.0702 10.542 17.163 10.6787C17.2509 10.8057 17.7099 11.6065 18.1884 12.4512L19.0575 13.9844L18.5155 14.502C18.2177 14.7852 17.6025 15.3711 17.1484 15.8057L16.3232 16.6016L16.1327 16.4502C15.8739 16.2402 15.498 16.0791 15.1122 16.0108C14.2968 15.8692 13.4179 16.2305 12.9247 16.9141C12.8661 16.9971 12.7441 16.9336 11.0204 15.9131L9.18449 14.8193L9.15519 14.5996C9.07707 14.0479 8.85246 13.5938 8.47648 13.2227C8.0175 12.7686 7.46574 12.5733 6.75773 12.6074C6.37199 12.627 6.2548 12.6563 5.94718 12.8027C4.68742 13.3984 4.2675 15.0879 5.10246 16.1865L5.23429 16.3574L4.04777 18.1592L2.85636 19.9658L2.44132 19.9365C1.52336 19.8779 0.722575 20.2881 0.273356 21.0596C-0.112386 21.7139 -0.092855 22.666 0.312418 23.3594C0.458903 23.6133 0.898356 24.0332 1.15226 24.1602C2.11906 24.6533 3.32511 24.4238 3.95988 23.6182C4.6923 22.7002 4.64347 21.4063 3.85246 20.6201L3.60343 20.3711L4.75578 18.6279C5.80558 17.041 5.92277 16.8848 6.02043 16.919C6.84074 17.1777 7.34367 17.1484 8.00285 16.7969C8.34464 16.6162 8.7841 16.167 8.91105 15.8789L8.99894 15.6885L10.7616 16.7383L12.5243 17.793L12.5097 18.1201C12.4706 18.75 12.6757 19.2969 13.12 19.7754C13.9599 20.6836 15.3954 20.7178 16.3036 19.8486C16.8114 19.3652 17.0214 18.8233 16.9775 18.0957C16.9628 17.8516 16.9237 17.5781 16.8847 17.4902L16.8114 17.3242L18.3984 15.7861C19.2675 14.9414 20.0634 14.1992 20.1659 14.1358C20.3808 13.999 20.4345 13.916 21.4111 12.1826C21.8359 11.4307 22.2362 10.7324 22.3046 10.6348C22.3681 10.5322 22.6025 10.3223 22.8271 10.1611C23.8134 9.44337 24.5068 8.43263 24.8437 7.23146C24.9609 6.80665 24.9706 6.68458 24.9755 5.8838C24.9755 4.89259 24.9267 4.6045 24.6044 3.81837C24.0624 2.48048 22.8271 1.31349 21.4648 0.849621C21.2792 0.786144 20.9521 0.698254 20.7372 0.659191C20.2441 0.566418 19.1845 0.571301 18.7255 0.668957ZM20.9716 1.5381C22.5829 2.01173 23.8085 3.3545 24.1454 5.02443C24.2675 5.61525 24.2284 6.5088 24.0527 7.09474C23.7402 8.13966 23.2177 8.87208 22.2851 9.57032C22.0409 9.75099 21.787 9.9756 21.7236 10.0635C21.6601 10.1514 21.206 10.9277 20.7128 11.7871C20.2245 12.6514 19.7997 13.3887 19.7753 13.4277C19.7118 13.5205 19.8046 13.6621 18.7939 11.8897C17.6952 9.95118 17.7099 9.9756 17.1728 9.57521C15.913 8.64259 15.3027 7.51466 15.2489 6.0254C15.205 4.84864 15.5126 3.90138 16.2255 3.05177C16.9286 2.20704 17.8271 1.67482 18.9696 1.43556C19.453 1.33302 20.4394 1.38185 20.9716 1.5381ZM7.49504 13.5645C8.02238 13.8135 8.31046 14.2627 8.31046 14.8486C8.32023 16.0791 6.82121 16.709 5.93742 15.8447C5.6591 15.5713 5.5175 15.2295 5.5175 14.8438C5.52238 13.8037 6.5673 13.125 7.49504 13.5645ZM15.3124 16.9434C15.7861 17.1484 16.162 17.7002 16.162 18.1983C16.162 18.7744 15.7616 19.375 15.2587 19.5459C14.6972 19.7412 14.1259 19.5996 13.7353 19.1797C13.413 18.8233 13.3544 18.6817 13.3544 18.2373C13.3593 17.9004 13.3739 17.8125 13.5009 17.5879C13.8622 16.9287 14.6386 16.6553 15.3124 16.9434ZM2.81242 20.8936C3.08097 21.0156 3.40324 21.3428 3.52531 21.6211C3.74504 22.1143 3.61808 22.7881 3.23234 23.1592C2.91984 23.4619 2.66593 23.5596 2.2216 23.5596C1.77726 23.5547 1.54289 23.4619 1.24015 23.1592C0.478434 22.4024 0.825114 21.1328 1.8798 20.8154C2.12882 20.7422 2.54386 20.7764 2.81242 20.8936Z" fill="#EBEEF0"/>
<path d="M19.2724 2.19727C17.2656 2.44141 15.8154 4.28711 16.0595 6.29883C16.3379 8.55957 18.5254 10.0244 20.7129 9.41895C21.4258 9.21875 22.3144 8.63281 22.3144 8.35938C22.3144 8.10059 22.1191 7.91016 21.8554 7.91016C21.792 7.91016 21.6455 7.9834 21.5283 8.07129C20.9668 8.50098 20.415 8.69629 19.7754 8.70606C18.9697 8.71582 18.3154 8.45215 17.749 7.89551C17.5586 7.7002 17.3388 7.44141 17.2656 7.31445C16.4502 5.9082 16.9726 4.10156 18.4131 3.34473C18.8427 3.12012 19.2236 3.02735 19.7265 3.02735C20.5078 3.02735 21.1767 3.30567 21.7334 3.85742C22.0996 4.22363 22.417 4.79004 22.5097 5.25391C22.5927 5.6543 22.5488 6.39649 22.417 6.82129C22.3193 7.12891 22.3144 7.1875 22.373 7.30957C22.5146 7.60742 22.9638 7.62207 23.1152 7.33399C23.4375 6.71387 23.4912 5.57129 23.2422 4.73633C23.125 4.35547 22.8027 3.76953 22.5049 3.41797C21.7724 2.54883 20.459 2.05567 19.2724 2.19727Z" fill="#EBEEF0"/>
</g>
<defs>
<clipPath id="clip0_59_45">
<rect width="25" height="25" fill="white"/>
</clipPath>
</defs>
</svg>
