<svg width="137" height="45" viewBox="0 0 137 45" fill="none" xmlns="http://www.w3.org/2000/svg">
<path d="M35.5234 0.0631599C35.1982 0.151051 34.3369 0.467457 16.1172 7.27898C8.6377 10.0651 5.50879 11.1989 4.99902 11.2868C3.18848 11.612 1.68555 12.8864 1.17578 14.5475C1.01758 15.0573 1 15.3649 1 17.6325V20.155L1.26367 20.4098C1.52734 20.6559 1.57129 20.6735 2.66113 20.7263C3.67188 20.7702 3.85645 20.8054 4.36621 21.0427C5.74609 21.693 6.53711 22.9235 6.53711 24.4089C6.53711 25.8942 5.74609 27.1247 4.36621 27.7751C3.85645 28.0124 3.67188 28.0475 2.66113 28.0915C1.57129 28.1442 1.52734 28.1618 1.26367 28.4079L1 28.6628V31.1852C1 34.0505 1.05273 34.3845 1.68555 35.36C2.29199 36.2917 3.0918 36.9157 4.25195 37.364L4.73535 37.5485L23.1484 37.5749C36.2617 37.5925 41.7285 37.5749 42.1328 37.5046C43.0732 37.3376 43.8994 36.8981 44.6289 36.1686C45.877 34.903 46 34.446 46 31.1325V28.6628L45.7363 28.4079C45.4727 28.1618 45.4287 28.1442 44.3213 28.0915C43.2402 28.0388 43.1523 28.0212 42.5371 27.7136C41.7725 27.3444 41.1309 26.694 40.7529 25.9206C40.5244 25.4636 40.5068 25.3405 40.5068 24.4089C40.5068 23.4772 40.5244 23.3542 40.7529 22.8972C41.1309 22.1237 41.7725 21.4733 42.5371 21.1042C43.1523 20.7966 43.2402 20.779 44.3213 20.7263C45.4287 20.6735 45.4727 20.6559 45.7363 20.4098L46 20.155V17.6852C46 14.4157 45.877 13.9675 44.6904 12.693C44.251 12.2272 43.9697 12.0163 43.416 11.7526C43.0205 11.568 42.5635 11.3835 42.3877 11.3571C42.001 11.2868 42.2031 11.7966 40.1553 5.74089C39.4082 3.51726 38.6963 1.53972 38.5732 1.32878C38.0195 0.388355 36.5957 -0.200512 35.5234 0.0631599ZM36.7188 2.19011C36.9033 2.34832 37.2461 3.28875 38.4326 6.80437L39.9268 11.2253L25.583 11.2165C17.6904 11.2165 11.292 11.1901 11.3623 11.1637C11.4326 11.1374 16.9697 9.06316 23.667 6.55828C31.3486 3.69304 35.9717 2.00554 36.1738 2.00554C36.3936 1.99675 36.5693 2.05828 36.7188 2.19011ZM15.9414 13.7302C15.9414 14.4157 16.0996 14.7673 16.4863 14.9694C16.8467 15.154 17.3037 15.0749 17.6289 14.7761C17.8574 14.5475 17.875 14.486 17.875 13.8444V13.1589L29.8545 13.1764C41.2363 13.2028 41.8428 13.2116 42.2383 13.361C42.792 13.5807 43.4951 14.2136 43.7852 14.7761C44.0137 15.2155 44.0225 15.2682 44.0488 16.9997L44.0752 18.7839H43.6533C41.9307 18.7839 39.9092 20.1462 39.0742 21.86C38.2568 23.5475 38.248 25.2878 39.0654 26.9577C39.5576 27.9597 40.5684 28.9792 41.5264 29.445C42.291 29.8229 43.0557 30.0339 43.6533 30.0339H44.0752L44.0488 31.8093C44.0225 33.5495 44.0137 33.6022 43.7852 34.0417C43.4951 34.6042 42.792 35.237 42.2383 35.4567C41.8428 35.6061 41.2363 35.6149 29.8545 35.6413L17.875 35.6589V34.9733C17.875 34.3317 17.8574 34.2702 17.6289 34.0417C17.3037 33.7429 16.8467 33.6638 16.4863 33.8483C16.0996 34.0505 15.9414 34.402 15.9414 35.0876V35.6677L10.5625 35.6413C5.61426 35.6149 5.13965 35.5974 4.76172 35.4479C4.20801 35.237 3.51367 34.6042 3.21484 34.0417C2.98633 33.6022 2.97754 33.5495 2.95117 31.8181L2.9248 30.0339H3.34668C5.06934 30.0339 7.1084 28.6628 7.92578 26.9489C8.74316 25.2438 8.74316 23.5739 7.92578 21.8688C7.09961 20.1462 5.06934 18.7839 3.34668 18.7839H2.9248L2.95117 16.9997C2.97754 15.277 2.98633 15.2155 3.21484 14.7848C3.64551 13.9675 4.41895 13.3962 5.30664 13.2468C5.52637 13.2116 8.00488 13.1764 10.8262 13.1677L15.9414 13.1589V13.7302Z" fill="white"/>
<path d="M16.2753 18.1598L15.9853 18.4147L15.9589 20.3395C15.9325 22.2292 15.9325 22.2643 16.1347 22.5632C16.4863 23.0817 17.2157 23.1432 17.664 22.695C17.8749 22.4841 17.8749 22.4841 17.8749 20.4538V18.4147L17.62 18.1598C17.2509 17.7995 16.6796 17.7995 16.2753 18.1598Z" fill="white"/>
<path d="M16.4951 25.903C16.3809 25.9469 16.2139 26.1139 16.1172 26.2721C15.9502 26.5446 15.9414 26.6852 15.959 28.4782L15.9854 30.403L16.2754 30.6579C16.6797 31.0182 17.251 31.0182 17.6201 30.6579L17.875 30.403V28.4079C17.875 27.2126 17.8399 26.3512 17.7871 26.2458C17.5938 25.8942 16.9522 25.7184 16.4951 25.903Z" fill="white"/>
<path d="M62.861 16.162V18.765H57.427V21.577H61.493V24.104H57.427V29.5H54.178V16.162H62.861ZM63.9226 24.18C63.9226 23.0907 64.1253 22.1343 64.5306 21.311C64.9486 20.4877 65.5123 19.8543 66.2216 19.411C66.931 18.9677 67.7226 18.746 68.5966 18.746C69.344 18.746 69.9963 18.898 70.5536 19.202C71.1236 19.506 71.5606 19.905 71.8646 20.399V18.898H75.1136V29.5H71.8646V27.999C71.548 28.493 71.1046 28.892 70.5346 29.196C69.9773 29.5 69.325 29.652 68.5776 29.652C67.7163 29.652 66.931 29.4303 66.2216 28.987C65.5123 28.531 64.9486 27.8913 64.5306 27.068C64.1253 26.232 63.9226 25.2693 63.9226 24.18ZM71.8646 24.199C71.8646 23.3883 71.6366 22.7487 71.1806 22.28C70.7373 21.8113 70.1926 21.577 69.5466 21.577C68.9006 21.577 68.3496 21.8113 67.8936 22.28C67.4503 22.736 67.2286 23.3693 67.2286 24.18C67.2286 24.9907 67.4503 25.6367 67.8936 26.118C68.3496 26.5867 68.9006 26.821 69.5466 26.821C70.1926 26.821 70.7373 26.5867 71.1806 26.118C71.6366 25.6493 71.8646 25.0097 71.8646 24.199ZM79.0981 17.796C78.5281 17.796 78.0595 17.6313 77.6921 17.302C77.3375 16.96 77.1601 16.542 77.1601 16.048C77.1601 15.5413 77.3375 15.1233 77.6921 14.794C78.0595 14.452 78.5281 14.281 79.0981 14.281C79.6555 14.281 80.1115 14.452 80.4661 14.794C80.8335 15.1233 81.0171 15.5413 81.0171 16.048C81.0171 16.542 80.8335 16.96 80.4661 17.302C80.1115 17.6313 79.6555 17.796 79.0981 17.796ZM80.7131 18.898V29.5H77.4641V18.898H80.7131ZM86.3166 20.665C86.6966 20.0823 87.1716 19.6263 87.7416 19.297C88.3116 18.955 88.945 18.784 89.6416 18.784V22.223H88.7486C87.938 22.223 87.33 22.4003 86.9246 22.755C86.5193 23.097 86.3166 23.705 86.3166 24.579V29.5H83.0676V18.898H86.3166V20.665Z" fill="#1A72D3"/>
<path d="M95.6026 16.257C97.0466 16.257 98.2943 16.5293 99.3456 17.074C100.41 17.606 101.22 18.3723 101.778 19.373C102.348 20.3737 102.633 21.5517 102.633 22.907C102.633 24.2623 102.348 25.4403 101.778 26.441C101.22 27.429 100.41 28.189 99.3456 28.721C98.2943 29.2403 97.0466 29.5 95.6026 29.5H91.4796V16.257H95.6026ZM95.6026 28.075C97.3126 28.075 98.6173 27.6253 99.5166 26.726C100.416 25.814 100.866 24.541 100.866 22.907C100.866 21.2603 100.41 19.9747 99.4976 19.05C98.5983 18.1253 97.2999 17.663 95.6026 17.663H93.2086V28.075H95.6026ZM106.642 20.779C106.946 20.1837 107.377 19.7213 107.934 19.392C108.504 19.0627 109.195 18.898 110.005 18.898V20.684H109.549C107.611 20.684 106.642 21.7353 106.642 23.838V29.5H104.913V19.088H106.642V20.779ZM116.542 29.671C115.567 29.671 114.68 29.4493 113.882 29.006C113.097 28.5627 112.476 27.9357 112.02 27.125C111.577 26.3017 111.355 25.3517 111.355 24.275C111.355 23.211 111.583 22.2737 112.039 21.463C112.508 20.6397 113.141 20.0127 113.939 19.582C114.737 19.1387 115.63 18.917 116.618 18.917C117.606 18.917 118.499 19.1387 119.297 19.582C120.095 20.0127 120.722 20.6333 121.178 21.444C121.647 22.2547 121.881 23.1983 121.881 24.275C121.881 25.3517 121.64 26.3017 121.159 27.125C120.69 27.9357 120.051 28.5627 119.24 29.006C118.429 29.4493 117.53 29.671 116.542 29.671ZM116.542 28.151C117.163 28.151 117.745 28.0053 118.29 27.714C118.835 27.4227 119.272 26.9857 119.601 26.403C119.943 25.8203 120.114 25.111 120.114 24.275C120.114 23.439 119.949 22.7297 119.62 22.147C119.291 21.5643 118.86 21.1337 118.328 20.855C117.796 20.5637 117.22 20.418 116.599 20.418C115.966 20.418 115.383 20.5637 114.851 20.855C114.332 21.1337 113.914 21.5643 113.597 22.147C113.28 22.7297 113.122 23.439 113.122 24.275C113.122 25.1237 113.274 25.8393 113.578 26.422C113.895 27.0047 114.313 27.4417 114.832 27.733C115.351 28.0117 115.921 28.151 116.542 28.151ZM125.883 21.007C126.225 20.4117 126.732 19.9177 127.403 19.525C128.087 19.1197 128.879 18.917 129.778 18.917C130.703 18.917 131.539 19.1387 132.286 19.582C133.046 20.0253 133.642 20.6523 134.072 21.463C134.503 22.261 134.718 23.192 134.718 24.256C134.718 25.3073 134.503 26.2447 134.072 27.068C133.642 27.8913 133.046 28.531 132.286 28.987C131.539 29.443 130.703 29.671 129.778 29.671C128.892 29.671 128.106 29.4747 127.422 29.082C126.751 28.6767 126.238 28.1763 125.883 27.581V34.44H124.154V19.088H125.883V21.007ZM132.951 24.256C132.951 23.4707 132.793 22.7867 132.476 22.204C132.16 21.6213 131.729 21.178 131.184 20.874C130.652 20.57 130.063 20.418 129.417 20.418C128.784 20.418 128.195 20.5763 127.65 20.893C127.118 21.197 126.688 21.6467 126.358 22.242C126.042 22.8247 125.883 23.5023 125.883 24.275C125.883 25.0603 126.042 25.7507 126.358 26.346C126.688 26.9287 127.118 27.3783 127.65 27.695C128.195 27.999 128.784 28.151 129.417 28.151C130.063 28.151 130.652 27.999 131.184 27.695C131.729 27.3783 132.16 26.9287 132.476 26.346C132.793 25.7507 132.951 25.054 132.951 24.256Z" fill="white"/>
</svg>
